<?xml version="1.0" standalone="no"?>
<!DOCTYPE svg PUBLIC "-//W3C//DTD SVG 20010904//EN"
 "http://www.w3.org/TR/2001/REC-SVG-20010904/DTD/svg10.dtd">
<svg version="1.0" xmlns="http://www.w3.org/2000/svg"
 width="720.000000pt" height="720.000000pt" viewBox="0 0 720.000000 720.000000"
 preserveAspectRatio="xMidYMid meet">

<g transform="translate(0.000000,720.000000) scale(0.100000,-0.100000)"
fill="#000000" stroke="none">
<path d="M3610 6821 c-43 -10 -110 -60 -182 -134 -63 -65 -138 -163 -138 -182
0 -4 -13 -27 -30 -51 -88 -131 -170 -427 -170 -613 0 -66 22 -237 44 -338 18
-83 87 -268 116 -313 6 -8 16 -26 23 -40 72 -145 363 -451 554 -583 45 -31 85
-57 88 -57 4 0 19 -8 33 -18 49 -34 199 -92 319 -123 104 -27 139 -32 294 -36
186 -5 244 1 394 41 209 56 411 170 582 328 171 159 864 852 878 878 59 112 4
197 -251 386 -205 152 -438 244 -712 280 -332 45 -721 -59 -1017 -271 -83 -59
-182 -150 -400 -367 -160 -158 -298 -288 -306 -288 -35 0 -82 71 -132 200 -42
107 -50 164 -45 321 4 128 8 154 35 229 38 107 110 237 170 308 95 112 113
158 99 256 -6 36 -18 58 -58 101 -27 30 -56 55 -64 55 -7 0 -17 6 -21 14 -10
16 -68 26 -103 17z m1888 -1041 c109 -23 231 -65 275 -94 21 -14 33 -31 35
-50 3 -26 -27 -59 -305 -336 -312 -312 -367 -357 -511 -430 -124 -63 -208 -80
-392 -80 -87 0 -181 4 -209 10 -67 12 -179 61 -258 112 -66 42 -79 60 -63 86
21 39 560 562 620 603 113 78 171 110 239 134 178 64 398 81 569 45z"/>
<path d="M2979 4553 c-143 -142 -268 -262 -279 -267 -15 -7 -29 -1 -62 26
-112 91 -294 192 -444 246 -137 50 -262 67 -489 67 -210 0 -277 -8 -420 -51
-260 -77 -448 -201 -736 -485 -233 -229 -259 -279 -202 -377 40 -67 270 -296
390 -385 111 -84 256 -164 312 -172 20 -3 59 -16 86 -30 78 -38 158 -54 315
-66 288 -22 437 6 690 127 112 54 186 103 295 195 107 90 840 825 876 879 56
84 74 145 73 255 0 91 -3 106 -33 170 -33 73 -75 125 -99 125 -7 0 -130 -116
-273 -257z m-984 -402 c114 -33 345 -160 359 -198 5 -12 -19 -43 -86 -110
-220 -223 -348 -296 -578 -336 -128 -21 -240 -12 -410 35 -114 32 -331 174
-359 235 -12 26 -10 29 70 105 136 129 286 217 445 262 127 35 122 34 309 32
143 -2 183 -6 250 -25z"/>
<path d="M6568 4342 c-26 -15 -67 -45 -90 -68 -486 -460 -924 -703 -1479 -820
-114 -24 -148 -27 -409 -30 -267 -4 -294 -2 -422 21 -147 26 -231 46 -312 74
-28 10 -76 26 -106 36 -60 19 -190 72 -285 114 -33 15 -100 54 -150 86 -124
80 -149 90 -171 68 -9 -10 -29 -42 -43 -73 -23 -48 -26 -68 -26 -155 0 -89 3
-106 26 -150 31 -58 123 -149 190 -188 49 -29 219 -101 279 -119 19 -5 40 -13
45 -17 28 -20 334 -99 480 -125 262 -47 651 -47 915 -1 212 37 331 71 635 182
22 8 99 43 170 78 318 155 667 400 923 649 134 131 168 188 157 263 -7 52 -40
116 -77 150 -63 59 -173 70 -250 25z"/>
<path d="M4705 2428 c-3 -7 -4 -215 -3 -463 l3 -450 38 -3 37 -3 -2 463 -3
463 -33 3 c-20 2 -34 -2 -37 -10z"/>
</g>
</svg>
